HIERARCHY
ROOT Hips
{
	OFFSET 0.000000 71.427986 0.000000
	CHANNELS 6 Xposition Yposition Zposition Xrotation Yrotation Zrotation
	JOINT Pelvis
	{
		OFFSET 0.000000 0.000000 0.000000
		CHANNELS 3 Xrotation Yrotation Zrotation
		JOINT LeftUpLeg
		{
			OFFSET 6.797100 -2.508499 -1.318700
			CHANNELS 3 Xrotation Yrotation Zrotation
			JOINT LeftLeg
			{
				OFFSET 0.069008 -29.241863 0.690200
				CHANNELS 3 Xrotation Yrotation Zrotation
				JOINT LeftFoot
				{
					OFFSET -0.069008 -29.568123 -0.266800
					CHANNELS 3 Xrotation Yrotation Zrotation
					JOINT LeftToeBase
					{
						OFFSET 3.145500 -8.631000 16.059900
						CHANNELS 3 Xrotation Yrotation Zrotation
						End Site
						{
							OFFSET 0.000000 18.501587 0.000000
						}
					}
				}
			}
			JOINT Left_ShortSleeve
			{
				OFFSET 0.265923 -10.480953 1.153800
				CHANNELS 3 Xrotation Yrotation Zrotation
				End Site
				{
					OFFSET 1.725763 19.823879 0.000000
				}
			}
		}
		JOINT RightUpLeg
		{
			OFFSET -6.797100 -2.508499 -1.318700
			CHANNELS 3 Xrotation Yrotation Zrotation
			JOINT RightLeg
			{
				OFFSET -0.082453 -29.241932 0.688000
				CHANNELS 3 Xrotation Yrotation Zrotation
				JOINT RightFoot
				{
					OFFSET 0.082453 -29.568058 -0.264600
					CHANNELS 3 Xrotation Yrotation Zrotation
					JOINT RightToeBase
					{
						OFFSET -3.115300 -8.682800 16.113400
						CHANNELS 3 Xrotation Yrotation Zrotation
						End Site
						{
							OFFSET 0.000000 18.567114 0.000000
						}
					}
				}
			}
			JOINT Right_ShortSleeve
			{
				OFFSET -0.265923 -10.480953 1.153800
				CHANNELS 3 Xrotation Yrotation Zrotation
				End Site
				{
					OFFSET -1.725766 19.823910 0.000000
				}
			}
		}
	}
	JOINT Spine
	{
		OFFSET 0.000000 13.368103 0.470500
		CHANNELS 3 Xrotation Yrotation Zrotation
		JOINT Spine1
		{
			OFFSET 0.147000 13.837402 0.538800
			CHANNELS 3 Xrotation Yrotation Zrotation
			JOINT Spine2
			{
				OFFSET 0.168000 16.242897 -1.435500
				CHANNELS 3 Xrotation Yrotation Zrotation
				JOINT Neck
				{
					OFFSET 0.217200 18.631500 -1.679100
					CHANNELS 3 Xrotation Yrotation Zrotation
					JOINT Head
					{
						OFFSET 0.000000 6.599396 1.385900
						CHANNELS 3 Xrotation Yrotation Zrotation
						JOINT Hat
						{
							OFFSET -0.532200 27.220596 -10.096100
							CHANNELS 3 Xrotation Yrotation Zrotation
							End Site
							{
								OFFSET 0.000000 22.029861 0.000000
							}
						}
						JOINT HairD
						{
							OFFSET -10.777400 17.437393 -1.325900
							CHANNELS 3 Xrotation Yrotation Zrotation
							JOINT HairD1
							{
								OFFSET -3.290299 -11.051193 1.062200
								CHANNELS 3 Xrotation Yrotation Zrotation
								End Site
								{
									OFFSET 0.000000 11.579437 0.000000
								}
							}
						}
						JOINT HairB
						{
							OFFSET -10.777400 17.437393 1.467900
							CHANNELS 3 Xrotation Yrotation Zrotation
							JOINT HairB1
							{
								OFFSET -1.561200 -12.956299 3.590200
								CHANNELS 3 Xrotation Yrotation Zrotation
								End Site
								{
									OFFSET 0.000000 13.534866 0.000000
								}
							}
						}
						JOINT HairA
						{
							OFFSET 9.713100 17.437393 1.467900
							CHANNELS 3 Xrotation Yrotation Zrotation
							JOINT HairA1
							{
								OFFSET 1.561200 -12.956299 3.590200
								CHANNELS 3 Xrotation Yrotation Zrotation
								End Site
								{
									OFFSET 0.000000 13.534866 0.000000
								}
							}
						}
						JOINT HairC
						{
							OFFSET 9.713100 17.437393 -1.325900
							CHANNELS 3 Xrotation Yrotation Zrotation
							JOINT HairC1
							{
								OFFSET 3.290300 -11.051193 1.062200
								CHANNELS 3 Xrotation Yrotation Zrotation
								End Site
								{
									OFFSET 0.000000 11.579437 0.000000
								}
							}
						}
					}
				}
				JOINT LeftShoulder
				{
					OFFSET 5.101800 15.108002 -2.763700
					CHANNELS 3 Xrotation Yrotation Zrotation
					JOINT LeftArm
					{
						OFFSET 9.825497 2.506317 -1.597400
						CHANNELS 3 Xrotation Yrotation Zrotation
						JOINT LeftForeArm
						{
							OFFSET 21.966244 0.000000 0.000000
							CHANNELS 3 Xrotation Yrotation Zrotation
							JOINT LeftHand
							{
								OFFSET 33.879036 0.000000 0.000000
								CHANNELS 3 Xrotation Yrotation Zrotation
								JOINT LeftHandThumb1
								{
									OFFSET 6.715286 -2.359680 3.363841
									CHANNELS 3 Xrotation Yrotation Zrotation
									JOINT LeftHandThumb2
									{
										OFFSET 2.507072 -1.447464 1.447461
										CHANNELS 3 Xrotation Yrotation Zrotation
										JOINT LeftHandThumb3
										{
											OFFSET 2.898338 -1.673355 1.673357
											CHANNELS 3 Xrotation Yrotation Zrotation
											End Site
											{
												OFFSET -0.295959 3.727692 -0.131651
											}
										}
									}
								}
								JOINT LeftHandIndex1
								{
									OFFSET 14.190811 -0.254547 3.840278
									CHANNELS 3 Xrotation Yrotation Zrotation
									JOINT LeftHandIndex2
									{
										OFFSET 3.551727 0.000000 -0.000000
										CHANNELS 3 Xrotation Yrotation Zrotation
										JOINT LeftHandIndex3
										{
											OFFSET 2.894196 0.000000 0.000000
											CHANNELS 3 Xrotation Yrotation Zrotation
											End Site
											{
												OFFSET -1.000603 2.690872 0.366626
											}
										}
									}
								}
								JOINT LeftHandMiddle1
								{
									OFFSET 13.776489 0.000000 0.000000
									CHANNELS 3 Xrotation Yrotation Zrotation
									JOINT LeftHandMiddle2
									{
										OFFSET 3.438232 0.000000 0.000000
										CHANNELS 3 Xrotation Yrotation Zrotation
										JOINT LeftHandMiddle3
										{
											OFFSET 3.691551 0.000000 0.000000
											CHANNELS 3 Xrotation Yrotation Zrotation
											End Site
											{
												OFFSET -1.082298 3.499527 0.457670
											}
										}
									}
								}
								JOINT LeftHandRing1
								{
									OFFSET 13.966164 -0.268127 -3.067488
									CHANNELS 3 Xrotation Yrotation Zrotation
									JOINT LeftHandRing2
									{
										OFFSET 3.162567 0.000000 0.000000
										CHANNELS 3 Xrotation Yrotation Zrotation
										JOINT LeftHandRing3
										{
											OFFSET 3.324348 0.000000 0.000000
											CHANNELS 3 Xrotation Yrotation Zrotation
											End Site
											{
												OFFSET -0.861900 3.184998 0.405154
											}
										}
									}
								}
								JOINT LeftHandPinky1
								{
									OFFSET 13.131393 -0.168503 -5.746925
									CHANNELS 3 Xrotation Yrotation Zrotation
									JOINT LeftHandPinky2
									{
										OFFSET 2.849182 0.000000 0.000000
										CHANNELS 3 Xrotation Yrotation Zrotation
										JOINT LeftHandPinky3
										{
											OFFSET 2.805038 0.000000 0.000000
											CHANNELS 3 Xrotation Yrotation Zrotation
											End Site
											{
												OFFSET -0.882500 2.642609 0.325652
											}
										}
									}
								}
							}
							JOINT Left_Sleeve
							{
								OFFSET 6.592125 -0.646545 0.805568
								CHANNELS 3 Xrotation Yrotation Zrotation
								End Site
								{
									OFFSET -0.000179 20.275787 -0.000000
								}
							}
						}
					}
				}
				JOINT RightShoulder
				{
					OFFSET -5.731700 15.108002 -2.763700
					CHANNELS 3 Xrotation Yrotation Zrotation
					JOINT RightArm
					{
						OFFSET -9.825497 2.506317 -1.597400
						CHANNELS 3 Xrotation Yrotation Zrotation
						JOINT RightForeArm
						{
							OFFSET -21.966242 0.000000 0.000000
							CHANNELS 3 Xrotation Yrotation Zrotation
							JOINT RightHand
							{
								OFFSET -33.879032 0.000000 0.000000
								CHANNELS 3 Xrotation Yrotation Zrotation
								JOINT RightHandThumb1
								{
									OFFSET -6.715286 -2.359680 3.363841
									CHANNELS 3 Xrotation Yrotation Zrotation
									JOINT RightHandThumb2
									{
										OFFSET -2.507072 -1.447464 1.447461
										CHANNELS 3 Xrotation Yrotation Zrotation
										JOINT RightHandThumb3
										{
											OFFSET -2.898338 -1.673355 1.673357
											CHANNELS 3 Xrotation Yrotation Zrotation
											End Site
											{
												OFFSET 0.295959 3.727692 -0.131651
											}
										}
									}
								}
								JOINT RightHandIndex1
								{
									OFFSET -14.190811 -0.254547 3.840278
									CHANNELS 3 Xrotation Yrotation Zrotation
									JOINT RightHandIndex2
									{
										OFFSET -3.551727 0.000000 -0.000000
										CHANNELS 3 Xrotation Yrotation Zrotation
										JOINT RightHandIndex3
										{
											OFFSET -2.894196 0.000000 0.000000
											CHANNELS 3 Xrotation Yrotation Zrotation
											End Site
											{
												OFFSET 1.000603 2.690872 0.366626
											}
										}
									}
								}
								JOINT RightHandMiddle1
								{
									OFFSET -13.776489 0.000000 0.000000
									CHANNELS 3 Xrotation Yrotation Zrotation
									JOINT RightHandMiddle2
									{
										OFFSET -3.438232 0.000000 0.000000
										CHANNELS 3 Xrotation Yrotation Zrotation
										JOINT RightHandMiddle3
										{
											OFFSET -3.691551 0.000000 0.000000
											CHANNELS 3 Xrotation Yrotation Zrotation
											End Site
											{
												OFFSET 1.082298 3.499527 0.457670
											}
										}
									}
								}
								JOINT RightHandRing1
								{
									OFFSET -13.966164 -0.268127 -3.067488
									CHANNELS 3 Xrotation Yrotation Zrotation
									JOINT RightHandRing2
									{
										OFFSET -3.162567 0.000000 0.000000
										CHANNELS 3 Xrotation Yrotation Zrotation
										JOINT RightHandRing3
										{
											OFFSET -3.324348 0.000000 0.000000
											CHANNELS 3 Xrotation Yrotation Zrotation
											End Site
											{
												OFFSET 0.861900 3.184998 0.405154
											}
										}
									}
								}
								JOINT RightHandPinky1
								{
									OFFSET -13.131393 -0.168503 -5.746925
									CHANNELS 3 Xrotation Yrotation Zrotation
									JOINT RightHandPinky2
									{
										OFFSET -2.849182 0.000000 0.000000
										CHANNELS 3 Xrotation Yrotation Zrotation
										JOINT RightHandPinky3
										{
											OFFSET -2.805038 0.000000 0.000000
											CHANNELS 3 Xrotation Yrotation Zrotation
											End Site
											{
												OFFSET 0.882500 2.642609 0.325652
											}
										}
									}
								}
							}
							JOINT Right_Sleeve
							{
								OFFSET -6.592125 -0.646545 0.805568
								CHANNELS 3 Xrotation Yrotation Zrotation
								End Site
								{
									OFFSET 0.000179 20.275787 -0.000000
								}
							}
						}
					}
				}
				JOINT Bind_Right_JacketString
				{
					OFFSET -3.534800 11.969597 7.200700
					CHANNELS 3 Xrotation Yrotation Zrotation
					JOINT Bind_Right_JacketString1
					{
						OFFSET -0.319900 -6.102600 2.794100
						CHANNELS 3 Xrotation Yrotation Zrotation
						End Site
						{
							OFFSET 0.000000 6.719452 0.000000
						}
					}
				}
				JOINT Bind_Left_JacketString
				{
					OFFSET 2.904800 11.969597 7.200700
					CHANNELS 3 Xrotation Yrotation Zrotation
					JOINT Bind_Left_JacketString1
					{
						OFFSET 0.364800 -5.904503 3.186800
						CHANNELS 3 Xrotation Yrotation Zrotation
						End Site
						{
							OFFSET 0.000000 6.719513 0.000000
						}
					}
				}
				JOINT HairE
				{
					OFFSET 5.915200 17.612701 -11.592200
					CHANNELS 3 Xrotation Yrotation Zrotation
					JOINT HairE1
					{
						OFFSET 0.289200 -7.171898 -1.284500
						CHANNELS 3 Xrotation Yrotation Zrotation
						End Site
						{
							OFFSET 0.000000 7.291756 0.000000
						}
					}
				}
				JOINT HairF
				{
					OFFSET -0.864800 17.612701 -11.592200
					CHANNELS 3 Xrotation Yrotation Zrotation
					JOINT HairF1
					{
						OFFSET 0.000000 -14.087097 -2.127501
						CHANNELS 3 Xrotation Yrotation Zrotation
						End Site
						{
							OFFSET 0.000000 14.246841 0.000000
						}
					}
				}
				JOINT HairG
				{
					OFFSET -8.087700 17.612701 -11.592200
					CHANNELS 3 Xrotation Yrotation Zrotation
					JOINT HairG1
					{
						OFFSET -0.293600 -6.081398 -0.910100
						CHANNELS 3 Xrotation Yrotation Zrotation
						End Site
						{
							OFFSET 0.000000 6.156120 0.000000
						}
					}
				}
			}
		}
	}
	JOINT Pouch
	{
		OFFSET 0.000000 4.394501 10.847300
		CHANNELS 3 Xrotation Yrotation Zrotation
		End Site
		{
			OFFSET 0.000000 21.880577 0.000000
		}
	}
	JOINT Bag
	{
		OFFSET -13.229000 4.813004 -0.593300
		CHANNELS 3 Xrotation Yrotation Zrotation
		End Site
		{
			OFFSET 0.000000 21.880577 0.000000
		}
	}
	JOINT OccupyGuyFacialAnim_Joint
	{
		OFFSET 1.000000 -70.206398 -1.655000
		CHANNELS 3 Xrotation Yrotation Zrotation
		End Site
		{
			OFFSET 0.000000 21.880577 0.000000
		}
	}
}
MOTION
Frames: 5
Frame Time: 0.033333
-0.328095 54.707947 1.508965 16.608206 -7.954571 -5.600004 -0.000001 0.000000 0.000000 -79.136143 -1.981198 3.008286 50.499946 5.083580 -1.746623 7.503225 28.838910 8.261692 -0.000000 -0.000000 0.000000 -0.000002 0.000000 -0.000000 6.198455 -12.598936 6.962201 54.973252 -14.406793 11.587949 -39.344468 -13.615133 16.150848 -0.000000 0.000001 -0.000000 -0.000000 0.000001 -0.000002 10.625206 13.772099 -7.757638 2.869510 4.087949 -0.126407 2.861627 4.312293 -0.311451 -0.688860 -2.356469 4.369686 -6.951131 -9.322003 11.106347 -0.000002 -0.000000 -0.000000 -0.000002 -0.000000 -0.000000 -0.000002 -0.000000 -0.000000 -0.000002 -0.000000 -0.000000 -0.000002 0.000000 -0.000000 -0.000002 -0.000000 -0.000000 -0.000002 0.000000 -0.000000 -0.000002 -0.000000 -0.000000 -0.000002 -0.000000 -0.000000 1.124702 -1.331171 -15.116522 -9.590830 31.513202 -40.008386 -0.000001 -10.721307 -0.000011 15.668215 -19.583476 20.990295 -5.456643 -6.701471 3.223890 8.098867 27.602352 1.094292 0.000000 0.000006 -0.000002 -1.866385 -6.065070 -12.588966 0.237182 1.651675 -16.342773 0.000003 -0.000001 -0.000002 -1.264336 -0.680472 -18.650048 0.387941 2.098221 -20.947900 0.000000 0.000001 -0.000001 0.028062 3.644849 -26.113092 0.502169 2.375021 -23.874320 -0.000000 0.000004 -0.000000 0.229040 4.354852 -33.121223 0.780414 2.923318 -29.888672 -0.000002 0.000000 0.000001 -0.000000 0.000002 -0.000001 2.870343 11.957091 -6.152305 -33.803655 70.877563 6.927788 -0.000376 94.709555 0.000388 17.111791 20.467053 -11.105449 -15.299383 26.937100 3.983083 9.846734 -45.621695 -5.486319 0.000000 -0.000002 0.000002 0.530853 -4.798283 13.845705 0.169901 -1.247732 15.507873 -0.000002 -0.000002 -0.000000 1.576771 -6.016284 32.822269 0.816465 -2.636000 34.413632 0.000001 -0.000001 0.000001 2.347856 -6.542669 43.827398 1.218010 -3.142195 42.367875 0.000009 -0.000000 0.000001 3.146675 -6.893247 54.105535 1.765798 -3.652471 51.591458 -0.000000 -0.000000 0.000000 -0.000001 0.000000 -0.000000 -0.000000 -0.000001 0.000000 0.000003 0.000000 -0.000000 -0.000000 -0.000001 0.000000 -0.000000 -0.000001 0.000000 -0.000000 -0.000001 0.000000 0.000003 0.000000 -0.000000 -0.000000 -0.000001 0.000000 -0.000000 -0.000001 0.000000 -0.000000 -0.000001 0.000000 0.000003 0.000000 -0.000000 -0.000001 0.000000 0.000000 -0.000001 0.000000 0.000000 -0.000001 0.000000 0.000000 
-0.619913 54.612099 2.081623 16.531757 -8.409842 -5.220703 -0.000000 -0.000001 0.000000 -79.587236 -2.172174 3.280197 52.552186 5.213693 -1.673858 6.393595 29.044171 7.489663 0.000000 -0.000000 0.000000 -0.000000 0.000000 0.000001 6.008676 -12.280324 5.871406 56.319558 -14.186565 11.787481 -37.328517 -13.950158 17.914790 -0.000000 -0.000000 0.000001 0.000001 -0.000001 -0.000001 11.176391 13.804067 -8.284810 2.889144 4.143449 -0.253915 2.873750 4.364398 -0.439484 -0.791023 -2.385291 4.323742 -7.749943 -9.113851 10.481637 -0.000002 -0.000000 0.000000 -0.000002 -0.000000 0.000000 -0.000002 -0.000000 0.000000 -0.000002 -0.000000 0.000000 -0.000002 -0.000000 -0.000000 -0.000002 -0.000000 0.000000 -0.000002 -0.000000 -0.000000 -0.000002 -0.000000 0.000000 -0.000002 -0.000000 0.000000 0.984622 -1.898206 -15.307769 -9.917943 30.379875 -39.777550 -0.000014 -12.229151 0.000017 16.793543 -19.513273 20.622038 -5.345964 -6.386667 3.103754 8.061160 27.375957 1.088658 -0.000002 0.000002 0.000002 -1.829603 -5.949625 -12.510936 0.231983 1.633822 -16.161216 0.000003 0.000001 0.000000 -1.237382 -0.635738 -18.518028 0.379900 2.077116 -20.727097 0.000002 -0.000001 -0.000001 0.028487 3.632305 -25.878082 0.491725 2.351305 -23.620961 0.000001 0.000000 0.000001 0.220976 4.329195 -32.749412 0.761549 2.890319 -29.516847 -0.000002 0.000001 0.000001 0.000001 -0.000002 -0.000002 2.932858 11.466429 -6.998958 -38.195357 70.296969 9.885301 -0.003634 92.478268 0.003610 16.577416 21.014938 -11.401581 -14.919708 26.464396 3.811522 9.800078 -45.209538 -5.441194 -0.000001 0.000000 0.000004 0.522085 -4.772884 13.749674 0.166402 -1.235043 15.346175 -0.000002 -0.000000 0.000000 1.545657 -5.982208 32.514354 0.799349 -2.610894 34.039860 0.000003 0.000001 0.000005 2.298849 -6.507693 43.377626 1.192602 -3.114139 41.902043 -0.000000 0.000000 0.000000 3.077966 -6.862288 53.486392 1.726706 -3.621200 50.975235 0.000004 -0.000001 0.000000 -0.000001 0.000000 -0.000000 0.000001 0.000000 -0.000000 0.000000 -0.000001 0.000000 0.000001 0.000000 -0.000000 0.000001 0.000000 -0.000000 0.000001 0.000000 -0.000000 0.000000 -0.000001 0.000001 0.000001 0.000000 -0.000000 0.000001 0.000000 -0.000000 0.000001 0.000000 -0.000000 0.000000 -0.000001 0.000001 -0.000000 -0.000001 0.000000 -0.000000 -0.000001 0.000000 -0.000000 -0.000001 0.000000 
-1.246846 54.432373 3.305559 16.401803 -9.364130 -4.440660 -0.000000 0.000000 -0.000000 -80.326522 -2.552469 3.862272 56.599291 5.516018 -1.511343 4.128326 29.458609 5.856091 0.000000 -0.000000 0.000000 -0.000002 -0.000000 -0.000001 7.227585 -11.478483 4.513716 55.956219 -13.848740 12.145030 -35.020443 -14.129653 19.472436 0.000001 -0.000002 0.000000 0.000002 -0.000004 -0.000000 12.321847 13.872756 -9.384482 2.929482 4.261466 -0.524963 2.898096 4.475094 -0.711549 -1.002734 -2.445921 4.223582 -9.389661 -8.677033 9.157468 -0.000001 -0.000000 -0.000000 -0.000001 -0.000000 -0.000000 -0.000001 -0.000000 -0.000000 -0.000001 -0.000000 -0.000000 -0.000001 -0.000000 -0.000000 -0.000001 -0.000000 -0.000000 -0.000001 -0.000000 -0.000000 -0.000001 -0.000000 -0.000000 -0.000001 -0.000000 -0.000000 0.680471 -3.077422 -15.718116 -10.603963 28.000128 -39.330053 -0.000010 -15.443404 0.000000 19.177751 -19.443397 19.894657 -5.116460 -5.713087 2.841055 7.980143 26.887024 1.076355 0.000002 0.000004 -0.000004 -1.750863 -5.698935 -12.342072 0.220909 1.595128 -15.768096 0.000001 0.000001 -0.000002 -1.179752 -0.538145 -18.232603 0.362781 2.031353 -20.249764 0.000001 0.000003 -0.000001 0.029522 3.605525 -25.369933 0.469513 2.299854 -23.073323 0.000000 0.000000 -0.000001 0.204040 4.273888 -31.945707 0.721552 2.818562 -28.713463 0.000000 0.000001 0.000001 0.000001 -0.000003 -0.000003 3.018509 10.431178 -8.768038 -46.802703 69.004090 15.463719 -0.000091 87.735405 0.000098 15.474205 22.195700 -12.015052 -14.125309 25.439577 3.466965 9.699571 -44.317102 -5.342650 -0.000000 -0.000001 0.000002 0.503359 -4.717822 13.541432 0.158935 -1.207530 14.995960 -0.000001 -0.000002 0.000002 1.479178 -5.907640 31.847174 0.762856 -2.556082 33.230264 0.000002 -0.000001 0.000001 2.194074 -6.430258 42.403368 1.138327 -3.052656 40.893005 0.000001 0.000000 0.000001 2.930883 -6.792077 52.145708 1.643218 -3.552051 49.640848 -0.000001 0.000001 -0.000001 -0.000000 -0.000001 -0.000000 0.000000 0.000000 -0.000001 0.000004 -0.000001 -0.000000 0.000000 0.000000 -0.000001 0.000000 0.000000 -0.000001 0.000000 0.000000 -0.000001 0.000004 -0.000001 0.000000 0.000000 0.000000 -0.000001 0.000000 0.000000 -0.000001 0.000000 0.000000 -0.000001 0.000004 -0.000001 0.000000 -0.000000 0.000000 -0.000000 -0.000000 0.000000 -0.000000 -0.000000 0.000000 -0.000000 
-2.070434 54.215553 4.903757 16.253301 -10.618510 -3.436498 0.000001 0.000000 -0.000000 -80.885668 -3.062004 4.587328 61.256162 5.894951 -1.322285 1.469566 29.959354 3.701248 -0.000000 -0.000000 0.000000 0.000001 -0.000000 -0.000001 9.859171 -10.373657 3.232665 53.419336 -13.461628 12.700809 -33.199487 -14.126711 20.061813 0.000001 0.000000 0.000000 0.000001 0.000002 -0.000001 13.773182 13.961398 -10.823632 2.978315 4.414531 -0.885526 2.925955 4.617917 -1.073062 -1.258543 -2.520384 4.079279 -11.379855 -8.091717 7.395380 0.000001 0.000000 -0.000000 0.000001 0.000000 -0.000000 0.000001 0.000000 -0.000000 0.000001 0.000000 -0.000000 0.000001 0.000000 -0.000000 0.000001 0.000000 -0.000000 0.000001 0.000000 -0.000000 0.000001 0.000000 -0.000000 0.000001 0.000000 -0.000000 0.264722 -4.584058 -16.291804 -11.556339 24.857265 -38.767969 -0.000006 -19.588223 0.000008 22.251471 -19.436244 19.080617 -4.808549 -4.764335 2.459312 7.865970 26.190425 1.058469 0.000003 0.000001 -0.000002 -1.640491 -5.338752 -12.101198 0.205534 1.539661 -15.206064 0.000001 -0.000000 -0.000000 -1.099106 -0.396911 -17.825557 0.339038 1.965814 -19.568827 0.000000 0.000001 -0.000001 0.031329 3.568129 -24.645083 0.438655 2.226110 -22.292124 0.000000 0.000000 -0.000001 0.180764 4.195565 -30.799546 0.666240 2.715270 -27.567646 -0.000001 -0.000000 -0.000001 -0.000001 0.000001 -0.000003 3.033930 9.146170 -11.008454 -56.793183 67.215509 21.592188 -0.000010 81.585981 0.000009 14.126067 23.702652 -12.853531 -13.046986 23.968852 3.031732 9.557180 -43.040956 -5.199672 0.000000 -0.000001 -0.000000 0.477121 -4.638702 13.243015 0.148548 -1.168071 14.494894 0.000000 0.000001 -0.000003 1.386287 -5.799011 30.892034 0.711984 -2.476785 32.071720 -0.000001 -0.000001 -0.000003 2.047536 -6.315353 41.009354 1.062541 -2.963009 39.448956 0.000002 -0.000000 0.000002 2.724672 -6.684049 50.228381 1.526662 -3.449786 47.732104 -0.000001 -0.000001 0.000000 -0.000000 -0.000000 -0.000000 0.000002 -0.000000 -0.000000 0.000002 0.000000 -0.000000 0.000002 -0.000000 -0.000000 0.000002 -0.000000 -0.000000 0.000002 -0.000000 -0.000000 0.000002 0.000000 -0.000000 0.000002 -0.000000 -0.000000 0.000002 -0.000000 -0.000000 0.000002 -0.000000 -0.000000 0.000002 0.000000 -0.000000 0.000001 0.000000 -0.000000 0.000001 0.000000 -0.000000 0.000001 0.000000 -0.000000 
-2.900659 54.012421 6.501786 16.090913 -11.897590 -2.460630 -0.000000 0.000000 -0.000000 -81.015906 -3.700018 5.378914 65.582650 7.094030 -1.376137 -1.154719 29.847732 1.568426 0.000000 0.000002 0.000000 -0.000002 -0.000000 0.000001 13.551358 -9.224332 2.220424 48.839230 -12.909023 13.518608 -32.266032 -14.043069 19.260473 0.000001 -0.000002 0.000001 -0.000001 -0.000002 -0.000001 15.122980 14.042398 -12.282132 3.017021 4.559342 -1.261305 2.943779 4.750665 -1.448826 -1.462850 -2.580214 3.897060 -13.054280 -7.496649 5.535054 0.000003 -0.000000 0.000000 0.000003 -0.000000 0.000000 0.000003 -0.000000 0.000000 0.000003 -0.000000 0.000000 0.000003 -0.000000 -0.000000 0.000003 -0.000000 0.000000 0.000003 -0.000000 -0.000000 0.000003 -0.000000 0.000000 0.000003 -0.000000 0.000000 -0.165502 -6.025870 -16.982683 -12.678128 21.629112 -38.130579 -0.000004 -23.648147 0.000019 25.193098 -19.394047 18.516605 -4.480418 -3.637057 1.976226 7.729232 25.336672 1.037276 0.000001 0.000001 -0.000001 -1.507356 -4.889428 -11.803845 0.187286 1.470912 -14.511405 0.000005 0.000000 -0.000002 -1.002148 -0.218712 -17.325480 0.310897 1.884844 -18.731386 0.000001 0.000002 0.000001 0.034186 3.523991 -23.754129 0.402133 2.134895 -21.332037 0.000002 -0.000001 0.000002 0.154076 4.100668 -29.391704 0.601145 2.586885 -26.160337 0.000002 -0.000000 -0.000001 -0.000001 0.000002 -0.000003 2.951864 8.034198 -13.128808 -65.543349 65.283904 26.807255 0.000007 75.598255 -0.000007 12.957083 25.012335 -13.916977 -11.826310 22.156191 2.595283 9.382896 -41.462312 -5.020457 -0.000000 0.000000 0.000003 0.445502 -4.540138 12.872011 0.136166 -1.119087 13.874406 0.000001 0.000001 -0.000003 1.274868 -5.661378 29.707218 0.651202 -2.377115 30.636397 0.000000 -0.000000 -0.000003 1.871697 -6.166543 39.282115 0.971818 -2.849320 37.659624 0.000003 0.000000 0.000003 2.476731 -6.538269 47.855690 1.387171 -3.317895 45.369388 0.000000 0.000002 -0.000001 -0.000000 -0.000000 -0.000000 -0.000002 0.000000 -0.000000 0.000001 -0.000000 -0.000001 -0.000002 0.000000 -0.000000 -0.000002 0.000000 -0.000000 -0.000002 0.000000 -0.000000 0.000001 -0.000000 -0.000000 -0.000002 0.000000 -0.000000 -0.000002 0.000000 -0.000000 -0.000002 0.000000 -0.000000 0.000001 -0.000000 -0.000000 -0.000000 0.000000 -0.000000 -0.000000 0.000000 -0.000000 -0.000000 0.000000 -0.000000 
